REM DIRINDEX 1\2,1\3,1\4
REM DIRNAME folder01,folder02,folder03,folder04
TITLE ""
FILE "Disc1Track08.mp3" MP3
  TRACK 01 AUDIO
    TITLE "0:"
    INDEX 01 00:00:00
  TRACK 02 AUDIO
    TITLE "4:cjc085_0325"
    INDEX 01 00:05:07
  TRACK 03 AUDIO
    TITLE "0:"
    INDEX 01 00:07:41
  TRACK 04 AUDIO
    TITLE "4:cjc085_0326"
    INDEX 01 00:08:34
  TRACK 05 AUDIO
    TITLE "2:cjc085_0327"
    INDEX 01 00:10:33
  TRACK 06 AUDIO
    TITLE "0:"
    INDEX 01 00:13:45
  TRACK 07 AUDIO
    TITLE "3:cjc085_0328"
    INDEX 01 00:13:67
  TRACK 08 AUDIO
    TITLE "0:"
    INDEX 01 00:16:44
  TRACK 09 AUDIO
    TITLE "4:cjc085_0329"
    INDEX 01 00:17:06
  TRACK 10 AUDIO
    TITLE "2:cjc085_0330"
    INDEX 01 00:18:70
  TRACK 11 AUDIO
    TITLE "0:"
    INDEX 01 00:21:37
  TRACK 12 AUDIO
    TITLE "3:cjc085_0331"
    INDEX 01 00:21:58
  TRACK 13 AUDIO
    TITLE "0:"
    INDEX 01 00:24:59
  TRACK 14 AUDIO
    TITLE "4:cjc085_0332"
    INDEX 01 00:25:05
  TRACK 15 AUDIO
    TITLE "2:cjc085_0333"
    INDEX 01 00:26:60
  TRACK 16 AUDIO
    TITLE "0:"
    INDEX 01 00:32:23
  TRACK 17 AUDIO
    TITLE "3:cjc085_0334"
    INDEX 01 00:32:43
  TRACK 18 AUDIO
    TITLE "0:"
    INDEX 01 00:36:42
  TRACK 19 AUDIO
    TITLE "4:cjc085_0335"
    INDEX 01 00:37:20
  TRACK 20 AUDIO
    TITLE "2:cjc085_0336"
    INDEX 01 00:38:67
  TRACK 21 AUDIO
    TITLE "0:"
    INDEX 01 00:42:02
  TRACK 22 AUDIO
    TITLE "3:cjc085_0337"
    INDEX 01 00:42:27
  TRACK 23 AUDIO
    TITLE "0:"
    INDEX 01 00:44:50
  TRACK 24 AUDIO
    TITLE "4:cjc085_0338"
    INDEX 01 00:45:18
  TRACK 25 AUDIO
    TITLE "2:cjc085_0339"
    INDEX 01 00:46:70
  TRACK 26 AUDIO
    TITLE "0:"
    INDEX 01 00:49:69
  TRACK 27 AUDIO
    TITLE "3:cjc085_0340"
    INDEX 01 00:50:25
  TRACK 28 AUDIO
    TITLE "0:"
    INDEX 01 00:52:53
  TRACK 29 AUDIO
    TITLE "4:cjc085_0341"
    INDEX 01 00:53:15
  TRACK 30 AUDIO
    TITLE "2:cjc085_0342"
    INDEX 01 00:55:22
  TRACK 31 AUDIO
    TITLE "0:"
    INDEX 01 00:57:62
  TRACK 32 AUDIO
    TITLE "3:cjc085_0343"
    INDEX 01 00:58:17
  TRACK 33 AUDIO
    TITLE "0:"
    INDEX 01 01:01:05
  TRACK 34 AUDIO
    TITLE "4:cjc085_0344"
    INDEX 01 01:01:52
  TRACK 35 AUDIO
    TITLE "2:cjc085_0345"
    INDEX 01 01:03:27
  TRACK 36 AUDIO
    TITLE "0:"
    INDEX 01 01:05:69
  TRACK 37 AUDIO
    TITLE "3:cjc085_0346"
    INDEX 01 01:06:34
  TRACK 38 AUDIO
    TITLE "0:"
    INDEX 01 01:08:62
  TRACK 39 AUDIO
    TITLE "4:cjc085_0347"
    INDEX 01 01:08:66
  TRACK 40 AUDIO
    TITLE "2:cjc085_0348"
    INDEX 01 01:10:65
  TRACK 41 AUDIO
    TITLE "0:"
    INDEX 01 01:16:24
  TRACK 42 AUDIO
    TITLE "3:cjc085_0349"
    INDEX 01 01:16:71
  TRACK 43 AUDIO
    TITLE "0:"
    INDEX 01 01:20:44
  TRACK 44 AUDIO
    TITLE "4:cjc085_0350"
    INDEX 01 01:21:16
  TRACK 45 AUDIO
    TITLE "2:cjc085_0351"
    INDEX 01 01:22:60
  TRACK 46 AUDIO
    TITLE "0:"
    INDEX 01 01:25:08
  TRACK 47 AUDIO
    TITLE "3:cjc085_0352"
    INDEX 01 01:26:21
  TRACK 48 AUDIO
    TITLE "0:"
    INDEX 01 01:29:33
  TRACK 49 AUDIO
    TITLE "4:cjc085_0353"
    INDEX 01 01:30:20
  TRACK 50 AUDIO
    TITLE "2:cjc085_0354"
    INDEX 01 01:32:08
  TRACK 51 AUDIO
    TITLE "0:"
    INDEX 01 01:34:38
  TRACK 52 AUDIO
    TITLE "3:cjc085_0355"
    INDEX 01 01:34:63
  TRACK 53 AUDIO
    TITLE "0:"
    INDEX 01 01:38:06
  TRACK 54 AUDIO
    TITLE "4:cjc085_0356"
    INDEX 01 01:38:34
  TRACK 55 AUDIO
    TITLE "2:cjc085_0357"
    INDEX 01 01:40:17
  TRACK 56 AUDIO
    TITLE "0:"
    INDEX 01 01:43:07
  TRACK 57 AUDIO
    TITLE "3:cjc085_0358"
    INDEX 01 01:43:23
  TRACK 58 AUDIO
    TITLE "0:"
    INDEX 01 01:46:06
  TRACK 59 AUDIO
    TITLE "4:cjc085_0359"
    INDEX 01 01:46:43
  TRACK 60 AUDIO
    TITLE "2:cjc085_0360"
    INDEX 01 01:48:20
  TRACK 61 AUDIO
    TITLE "0:"
    INDEX 01 01:51:48
  TRACK 62 AUDIO
    TITLE "3:cjc085_0361"
    INDEX 01 01:52:06
  TRACK 63 AUDIO
    TITLE "0:"
    INDEX 01 01:55:69
  TRACK 64 AUDIO
    TITLE "4:cjc085_0362"
    INDEX 01 01:57:41
  TRACK 65 AUDIO
    TITLE "2:cjc085_0363"
    INDEX 01 01:59:44
  TRACK 66 AUDIO
    TITLE "0:"
    INDEX 01 02:04:13
  TRACK 67 AUDIO
    TITLE "3:cjc085_0364"
    INDEX 01 02:04:29
  TRACK 68 AUDIO
    TITLE "0:"
    INDEX 01 02:07:69
  TRACK 69 AUDIO
    TITLE "4:cjc085_0365"
    INDEX 01 02:08:11
  TRACK 70 AUDIO
    TITLE "2:cjc085_0366"
    INDEX 01 02:10:14
  TRACK 71 AUDIO
    TITLE "0:"
    INDEX 01 02:12:66
  TRACK 72 AUDIO
    TITLE "3:cjc085_0367"
    INDEX 01 02:13:24
  TRACK 73 AUDIO
    TITLE "0:"
    INDEX 01 02:15:62
  TRACK 74 AUDIO
    TITLE "4:cjc085_0368"
    INDEX 01 02:16:24
  TRACK 75 AUDIO
    TITLE "2:cjc085_0369"
    INDEX 01 02:18:19
  TRACK 76 AUDIO
    TITLE "0:"
    INDEX 01 02:20:61
  TRACK 77 AUDIO
    TITLE "3:cjc085_0370"
    INDEX 01 02:21:12
  TRACK 78 AUDIO
    TITLE "0:"
    INDEX 01 02:24:59
  TRACK 79 AUDIO
    TITLE "4:cjc085_0371"
    INDEX 01 02:25:29
  TRACK 80 AUDIO
    TITLE "2:cjc085_0372"
    INDEX 01 02:27:34
  TRACK 81 AUDIO
    TITLE "0:"
    INDEX 01 02:30:72
  TRACK 82 AUDIO
    TITLE "3:cjc085_0373"
    INDEX 01 02:31:06
  TRACK 83 AUDIO
    TITLE "0:"
    INDEX 01 02:34:17
  TRACK 84 AUDIO
    TITLE "4:cjc085_0374"
    INDEX 01 02:35:28
  TRACK 85 AUDIO
    TITLE "2:cjc085_0375"
    INDEX 01 02:37:29
  TRACK 86 AUDIO
    TITLE "0:"
    INDEX 01 02:41:32
  TRACK 87 AUDIO
    TITLE "3:cjc085_0376"
    INDEX 01 02:41:50
  TRACK 88 AUDIO
    TITLE "0:"
    INDEX 01 02:44:44
  TRACK 89 AUDIO
    TITLE "4:cjc085_0377"
    INDEX 01 02:45:01
  TRACK 90 AUDIO
    TITLE "2:cjc085_0378"
    INDEX 01 02:47:15
  TRACK 91 AUDIO
    TITLE "0:"
    INDEX 01 02:50:08
  TRACK 92 AUDIO
    TITLE "3:cjc085_0379"
    INDEX 01 02:50:31
  TRACK 93 AUDIO
    TITLE "0:"
    INDEX 01 02:53:20
  TRACK 94 AUDIO
    TITLE "4:cjc085_0380"
    INDEX 01 02:54:00
  TRACK 95 AUDIO
    TITLE "2:cjc085_0381"
    INDEX 01 02:56:14
  TRACK 96 AUDIO
    TITLE "0:"
    INDEX 01 02:58:66
  TRACK 97 AUDIO
    TITLE "3:cjc085_0382"
    INDEX 01 02:59:22
  TRACK 98 AUDIO
    TITLE "0:"
    INDEX 01 03:01:41
  TRACK 99 AUDIO
    TITLE "4:cjc085_0383"
    INDEX 01 03:02:09
  TRACK 100 AUDIO
    TITLE "2:cjc085_0384"
    INDEX 01 03:04:00
  TRACK 101 AUDIO
    TITLE "0:"
    INDEX 01 03:08:29
  TRACK 102 AUDIO
    TITLE "3:cjc085_0385"
    INDEX 01 03:08:62
  TRACK 103 AUDIO
    TITLE "0:"
    INDEX 01 03:12:39
  TRACK 104 AUDIO
    TITLE "4:cjc085_0386"
    INDEX 01 03:12:70
  TRACK 105 AUDIO
    TITLE "2:cjc085_0387"
    INDEX 01 03:14:69
  TRACK 106 AUDIO
    TITLE "0:"
    INDEX 01 03:17:57
  TRACK 107 AUDIO
    TITLE "3:cjc085_0388"
    INDEX 01 03:18:06
  TRACK 108 AUDIO
    TITLE "0:"
    INDEX 01 03:21:08
  TRACK 109 AUDIO
    TITLE "4:cjc085_0389"
    INDEX 01 03:21:45
  TRACK 110 AUDIO
    TITLE "2:cjc085_0390"
    INDEX 01 03:23:42
  TRACK 111 AUDIO
    TITLE "0:"
    INDEX 01 03:26:23
  TRACK 112 AUDIO
    TITLE "3:cjc085_0391"
    INDEX 01 03:26:41
  TRACK 113 AUDIO
    TITLE "0:"
    INDEX 01 03:29:45
  TRACK 114 AUDIO
    TITLE "4:cjc085_0392"
    INDEX 01 03:30:19
  TRACK 115 AUDIO
    TITLE "2:cjc085_0393"
    INDEX 01 03:32:26
  TRACK 116 AUDIO
    TITLE "0:"
    INDEX 01 03:36:51
  TRACK 117 AUDIO
    TITLE "3:cjc085_0394"
    INDEX 01 03:36:59
  TRACK 118 AUDIO
    TITLE "0:"
    INDEX 01 03:40:68
  TRACK 119 AUDIO
    TITLE "4:cjc085_0395"
    INDEX 01 03:41:23
  TRACK 120 AUDIO
    TITLE "2:cjc085_0396"
    INDEX 01 03:43:18
  TRACK 121 AUDIO
    TITLE "0:"
    INDEX 01 03:46:02
  TRACK 122 AUDIO
    TITLE "3:cjc085_0397"
    INDEX 01 03:46:49
  TRACK 123 AUDIO
    TITLE "0:"
    INDEX 01 03:49:52
  TRACK 124 AUDIO
    TITLE "4:cjc085_0398"
    INDEX 01 03:50:12
  TRACK 125 AUDIO
    TITLE "2:cjc085_0399"
    INDEX 01 03:52:09
  TRACK 126 AUDIO
    TITLE "0:"
    INDEX 01 03:55:09
  TRACK 127 AUDIO
    TITLE "3:cjc085_0400"
    INDEX 01 03:55:31
  TRACK 128 AUDIO
    TITLE "0:"
    INDEX 01 03:58:64
  TRACK 129 AUDIO
    TITLE "4:cjc085_0401"
    INDEX 01 03:59:34
  TRACK 130 AUDIO
    TITLE "2:cjc085_0402"
    INDEX 01 04:01:49
  TRACK 131 AUDIO
    TITLE "0:"
    INDEX 01 04:04:28
  TRACK 132 AUDIO
    TITLE "3:cjc085_0403"
    INDEX 01 04:04:47
  TRACK 133 AUDIO
    TITLE "0:"
    INDEX 01 04:08:14
  TRACK 134 AUDIO
    TITLE "4:cjc085_0404"
    INDEX 01 04:10:01
  TRACK 135 AUDIO
    TITLE "2:cjc085_0405"
    INDEX 01 04:11:65
  TRACK 136 AUDIO
    TITLE "0:"
    INDEX 01 04:17:38
  TRACK 137 AUDIO
    TITLE "3:cjc085_0406"
    INDEX 01 04:18:12
  TRACK 138 AUDIO
    TITLE "0:"
    INDEX 01 04:22:18
  TRACK 139 AUDIO
    TITLE "4:cjc085_0407"
    INDEX 01 04:22:39
  TRACK 140 AUDIO
    TITLE "2:cjc085_0408"
    INDEX 01 04:24:52
  TRACK 141 AUDIO
    TITLE "0:"
    INDEX 01 04:28:30
  TRACK 142 AUDIO
    TITLE "3:cjc085_0409"
    INDEX 01 04:29:08
  TRACK 143 AUDIO
    TITLE "0:"
    INDEX 01 04:33:20
  TRACK 144 AUDIO
    TITLE "4:cjc085_0410"
    INDEX 01 04:33:63
  TRACK 145 AUDIO
    TITLE "2:cjc085_0411"
    INDEX 01 04:35:42
  TRACK 146 AUDIO
    TITLE "0:"
    INDEX 01 04:39:48
  TRACK 147 AUDIO
    TITLE "3:cjc085_0412"
    INDEX 01 04:40:35
  TRACK 148 AUDIO
    TITLE "0:"
    INDEX 01 04:43:20
  TRACK 149 AUDIO
    TITLE "4:cjc085_0413"
    INDEX 01 04:43:43
  TRACK 150 AUDIO
    TITLE "2:cjc085_0414"
    INDEX 01 04:45:60
  TRACK 151 AUDIO
    TITLE "0:"
    INDEX 01 04:48:70
  TRACK 152 AUDIO
    TITLE "3:cjc085_0415"
    INDEX 01 04:49:32
  TRACK 153 AUDIO
    TITLE "0:"
    INDEX 01 04:52:33
  TRACK 154 AUDIO
    TITLE "4:cjc085_0416"
    INDEX 01 04:52:74
  TRACK 155 AUDIO
    TITLE "2:cjc085_0417"
    INDEX 01 04:54:71
  TRACK 156 AUDIO
    TITLE "0:"
    INDEX 01 04:57:47
  TRACK 157 AUDIO
    TITLE "3:cjc085_0418"
    INDEX 01 04:58:00
  TRACK 158 AUDIO
    TITLE "0:"
    INDEX 01 05:00:32
  TRACK 159 AUDIO
    TITLE "4:cjc085_0419"
    INDEX 01 05:01:06
  TRACK 160 AUDIO
    TITLE "2:cjc085_0420"
    INDEX 01 05:03:07
  TRACK 161 AUDIO
    TITLE "0:"
    INDEX 01 05:07:50
  TRACK 162 AUDIO
    TITLE "3:cjc085_0421"
    INDEX 01 05:08:14
  TRACK 163 AUDIO
    TITLE "0:"
    INDEX 01 05:11:46
  TRACK 164 AUDIO
    TITLE "4:cjc085_0422"
    INDEX 01 05:12:08
  TRACK 165 AUDIO
    TITLE "2:cjc085_0423"
    INDEX 01 05:14:05
  TRACK 166 AUDIO
    TITLE "0:"
    INDEX 01 05:17:68
  TRACK 167 AUDIO
    TITLE "3:cjc085_0424"
    INDEX 01 05:18:36
  TRACK 168 AUDIO
    TITLE "0:"
    INDEX 01 05:23:00
  TRACK 169 AUDIO
    TITLE "4:cjc085_0425"
    INDEX 01 05:23:33
  TRACK 170 AUDIO
    TITLE "2:cjc085_0426"
    INDEX 01 05:25:34
  TRACK 171 AUDIO
    TITLE "0:"
    INDEX 01 05:28:54
  TRACK 172 AUDIO
    TITLE "3:cjc085_0427"
    INDEX 01 05:28:68
  TRACK 173 AUDIO
    TITLE "0:"
    INDEX 01 05:31:74
  TRACK 174 AUDIO
    TITLE "4:cjc085_0428"
    INDEX 01 05:32:34
  TRACK 175 AUDIO
    TITLE "2:cjc085_0429"
    INDEX 01 05:34:29
  TRACK 176 AUDIO
    TITLE "0:"
    INDEX 01 05:38:44
  TRACK 177 AUDIO
    TITLE "3:cjc085_0430"
    INDEX 01 05:38:56
  TRACK 178 AUDIO
    TITLE "0:"
    INDEX 01 05:42:38
  TRACK 179 AUDIO
    TITLE "4:cjc085_0431"
    INDEX 01 05:43:36
  TRACK 180 AUDIO
    TITLE "2:cjc085_0432"
    INDEX 01 05:45:54
  TRACK 181 AUDIO
    TITLE "0:"
    INDEX 01 05:49:23
  TRACK 182 AUDIO
    TITLE "3:cjc085_0433"
    INDEX 01 05:49:34
  TRACK 183 AUDIO
    TITLE "0:"
    INDEX 01 05:52:35
  TRACK 184 AUDIO
    TITLE "4:cjc085_0434"
    INDEX 01 05:53:09
  TRACK 185 AUDIO
    TITLE "2:cjc085_0435"
    INDEX 01 05:55:02
  TRACK 186 AUDIO
    TITLE "0:"
    INDEX 01 05:58:33
  TRACK 187 AUDIO
    TITLE "3:cjc085_0436"
    INDEX 01 05:58:53
  TRACK 188 AUDIO
    TITLE "0:"
    INDEX 01 06:02:39
  TRACK 189 AUDIO
    TITLE "4:cjc085_0437"
    INDEX 01 06:02:66
  TRACK 190 AUDIO
    TITLE "2:cjc085_0438"
    INDEX 01 06:04:54
  TRACK 191 AUDIO
    TITLE "0:"
    INDEX 01 06:07:15
  TRACK 192 AUDIO
    TITLE "3:cjc085_0439"
    INDEX 01 06:07:34
  TRACK 193 AUDIO
    TITLE "0:"
    INDEX 01 06:10:09
  TRACK 194 AUDIO
    TITLE "4:cjc085_0440"
    INDEX 01 06:10:62
  TRACK 195 AUDIO
    TITLE "2:cjc085_0441"
    INDEX 01 06:12:73
  TRACK 196 AUDIO
    TITLE "0:"
    INDEX 01 06:16:14
  TRACK 197 AUDIO
    TITLE "3:cjc085_0442"
    INDEX 01 06:16:29
  TRACK 198 AUDIO
    TITLE "0:"
    INDEX 01 06:19:71
  TRACK 199 AUDIO
    TITLE "4:cjc085_0443"
    INDEX 01 06:21:27
  TRACK 200 AUDIO
    TITLE "2:cjc085_0444"
    INDEX 01 06:23:29
  TRACK 201 AUDIO
    TITLE "0:"
    INDEX 01 06:27:19
  TRACK 202 AUDIO
    TITLE "3:cjc085_0445"
    INDEX 01 06:27:55
  TRACK 203 AUDIO
    TITLE "0:"
    INDEX 01 06:31:60
  TRACK 204 AUDIO
    TITLE "4:cjc085_0446"
    INDEX 01 06:32:40
  TRACK 205 AUDIO
    TITLE "2:cjc085_0447"
    INDEX 01 06:34:41
  TRACK 206 AUDIO
    TITLE "0:"
    INDEX 01 06:38:27
  TRACK 207 AUDIO
    TITLE "3:cjc085_0448"
    INDEX 01 06:38:53
  TRACK 208 AUDIO
    TITLE "0:"
    INDEX 01 06:42:41
  TRACK 209 AUDIO
    TITLE "4:cjc085_0449"
    INDEX 01 06:42:62
  TRACK 210 AUDIO
    TITLE "2:cjc085_0450"
    INDEX 01 06:45:00
  TRACK 211 AUDIO
    TITLE "0:"
    INDEX 01 06:48:35
  TRACK 212 AUDIO
    TITLE "3:cjc085_0451"
    INDEX 01 06:48:61
  TRACK 213 AUDIO
    TITLE "0:"
    INDEX 01 06:51:67
  TRACK 214 AUDIO
    TITLE "4:cjc085_0452"
    INDEX 01 06:52:49
  TRACK 215 AUDIO
    TITLE "2:cjc085_0453"
    INDEX 01 06:54:55
  TRACK 216 AUDIO
    TITLE "0:"
    INDEX 01 06:57:73
  TRACK 217 AUDIO
    TITLE "3:cjc085_0454"
    INDEX 01 06:58:24
  TRACK 218 AUDIO
    TITLE "0:"
    INDEX 01 07:00:60
